PathFileType	3	(X/Y/Z)	walking_3__fused_aligned.trc
DataRate	CameraRate	NumFrames	NumMarkers	Units	OrigDataRate	OrigDataStartFrame	OrigNumFrames
100.0	100.0	12	19	mm	100.0	3420	6307
Frame#	Time	pelvis			neck			head			hip_left			hip_right			knee_left			knee_right			ankle_left			ankle_right			heel_left			heel_right			toe_left			toe_right			shoulder_left			shoulder_right			elbow_left			elbow_right			wrist_left			wrist_right			
		X1	Y1	Z1	X2	Y2	Z2	X3	Y3	Z3	X4	Y4	Z4	X5	Y5	Z5	X6	Y6	Z6	X7	Y7	Z7	X8	Y8	Z8	X9	Y9	Z9	X10	Y10	Z10	X11	Y11	Z11	X12	Y12	Z12	X13	Y13	Z13	X14	Y14	Z14	X15	Y15	Z15	X16	Y16	Z16	X17	Y17	Z17	X18	Y18	Z18	X19	Y19	Z19	
3420	34.19000	148.000020	944.116696	-11.272896	137.597947	1511.089275	63.160707	151.385684	1596.838080	211.339999	225.333884	947.528065	-12.490737	70.666084	940.705336	-10.055062	227.590998	522.601715	121.550161	9.160215	516.870400	62.842874	224.174968	92.021703	137.551638	-29.543329	223.602629	-226.644405	222.553636	35.538524	111.266846	-28.364649	211.115139	-280.766957	209.984858	65.724218	338.854892	-38.860732	66.326206	-145.154926	315.784672	1462.467194	8.030610	-45.205730	1449.065235	44.731153	378.099775	1178.203860	-61.931074	-109.868891	1160.502608	67.952485	431.150281	914.157375	-75.031166	-85.337562	966.657171	230.229328
3421	34.20000	150.750269	944.415571	-13.125460	139.564971	1511.307894	61.682898	152.838138	1596.875165	209.926253	228.099013	948.071924	-14.456322	73.401427	940.759228	-11.794607	229.527011	521.916822	111.697242	12.068013	518.669979	68.805399	225.702210	91.862328	121.633583	-26.879549	224.601984	-214.428629	224.037560	35.712370	94.696643	-25.755313	211.727749	-267.917541	211.907490	63.561148	322.559511	-35.909001	69.119384	-132.323347	318.046032	1462.736142	7.911965	-42.868421	1449.252975	41.697479	380.946793	1178.328272	-58.639888	-107.196262	1160.649773	61.380197	431.695754	915.892266	-65.798761	-86.205055	964.279999	218.252577
3422	34.21000	153.500517	944.714445	-14.978023	141.531996	1511.526512	60.205088	154.290592	1596.912251	208.512507	230.864143	948.615782	-16.421907	76.136771	940.813121	-13.534152	231.463024	521.231929	101.844324	14.975811	520.469558	74.767924	227.229453	91.702954	105.715529	-24.215768	225.601338	-202.212853	225.521484	35.886216	78.126440	-23.145976	212.340359	-255.068125	213.830122	61.398079	306.264130	-32.957270	71.912563	-119.491768	320.307392	1463.005089	7.793321	-40.531113	1449.440714	38.663805	383.793810	1178.452685	-55.348701	-104.523634	1160.796937	54.807908	432.241227	917.627157	-56.566357	-87.072548	961.902826	206.275826
3423	34.22000	156.250766	945.013320	-16.830587	143.499020	1511.745130	58.727279	155.743046	1596.949336	207.098760	233.629272	949.159641	-18.387492	78.872115	940.867013	-15.273698	233.399037	520.547035	91.991406	17.883609	522.269137	80.730448	228.756695	91.543580	89.797475	-21.551987	226.600692	-189.997077	227.005408	36.060061	61.556236	-20.536640	212.952968	-242.218709	215.752755	59.235009	289.968749	-30.005539	74.705741	-106.660189	322.568751	1463.274037	7.674677	-38.193804	1449.628454	35.630131	386.640828	1178.577097	-52.057515	-101.851006	1160.944101	48.235620	432.786700	919.362047	-47.333952	-87.940041	959.525654	194.299074
3424	34.23000	159.001014	945.312194	-18.683151	145.466045	1511.963748	57.249469	157.195500	1596.986421	205.685014	236.394402	949.703500	-20.353077	81.607459	940.920906	-17.013243	235.335050	519.862142	82.138487	20.791408	524.068717	86.692973	230.283937	91.384206	73.879420	-18.888206	227.600046	-177.781301	228.489332	36.233907	44.986033	-17.927304	213.565578	-229.369292	217.675387	57.071939	273.673368	-27.053809	77.498919	-93.828610	324.830111	1463.542984	7.556032	-35.856495	1449.816194	32.596457	389.487846	1178.701509	-48.766328	-99.178377	1161.091266	41.663331	433.332173	921.096938	-38.101548	-88.807534	957.148481	182.322323
3425	34.24000	161.751263	945.611069	-20.535714	147.433069	1512.182367	55.771659	158.647954	1597.023506	204.271268	239.159531	950.247359	-22.318662	84.342802	940.974798	-18.752788	237.271063	519.177249	72.285569	23.699206	525.868296	92.655497	231.811180	91.224832	57.961366	-16.224426	228.599400	-165.565525	229.973256	36.407753	28.415830	-15.317968	214.178188	-216.519876	219.598019	54.908870	257.377987	-24.102078	80.292098	-80.997032	327.091471	1463.811932	7.437388	-33.519187	1450.003934	29.562783	392.334863	1178.825921	-45.475142	-96.505749	1161.238430	35.091043	433.877646	922.831828	-28.869143	-89.675028	954.771308	170.345571
3426	34.25000	164.501512	945.909943	-22.388278	149.400094	1512.400985	54.293850	160.100408	1597.060592	202.857522	241.924661	950.791218	-24.284247	87.078146	941.028691	-20.492333	239.207076	518.492356	62.432650	26.607004	527.667875	98.618022	233.338422	91.065458	42.043311	-13.560645	229.598754	-153.349748	231.457180	36.581599	11.845626	-12.708631	214.790798	-203.670460	221.520652	52.745800	241.082606	-21.150347	83.085276	-68.165453	329.352831	1464.080879	7.318744	-31.181878	1450.191673	26.529109	395.181881	1178.950334	-42.183955	-93.833120	1161.385595	28.518754	434.423119	924.566719	-19.636739	-90.542521	952.394136	158.368820
3427	34.26000	167.251760	946.208818	-24.240842	151.367119	1512.619603	52.816040	161.552862	1597.097677	201.443776	244.689790	951.335077	-26.249832	89.813490	941.082584	-22.231879	241.143089	517.807463	52.579732	29.514802	529.467454	104.580547	234.865664	90.906084	26.125257	-10.896864	230.598108	-141.133972	232.941104	36.755445	-4.724577	-10.099295	215.403408	-190.821044	223.443284	50.582730	224.787225	-18.198616	85.878454	-55.333874	331.614191	1464.349827	7.200099	-28.844569	1450.379413	23.495434	398.028898	1179.074746	-38.892769	-91.160492	1161.532759	21.946466	434.968593	926.301610	-10.404334	-91.410014	950.016963	146.392069
3428	34.27000	168.230926	946.314449	-26.248957	151.688038	1512.419680	51.555590	161.388393	1596.856149	200.214577	245.696315	951.538530	-28.519242	90.765306	941.090397	-23.978707	242.683788	517.342497	41.620892	31.104978	531.392806	110.411781	235.649544	91.874958	6.706251	-9.654135	229.596746	-124.886413	233.464916	38.363346	-25.027123	-9.072607	213.318950	-173.579128	225.098571	48.222285	204.192633	-16.261445	88.665337	-36.385396	332.222658	1464.124719	7.280605	-28.147750	1450.318307	20.690684	399.565465	1178.770881	-35.425388	-89.979227	1161.811337	14.602078	434.580747	928.095024	-0.003478	-93.147805	947.522160	131.911853
3429	34.28000	169.210092	946.420080	-28.257073	152.008957	1512.219757	50.295139	161.223924	1596.614622	198.985378	246.702840	951.741983	-30.788651	91.717123	941.098211	-25.725535	244.224487	516.877532	30.662052	32.695153	533.318158	116.243015	236.433424	92.843832	-12.712754	-8.411405	228.595383	-108.638855	233.988728	39.971247	-45.329669	-8.045918	211.234492	-156.337213	226.753858	45.861839	183.598041	-14.324273	91.452219	-17.436918	332.831126	1463.899611	7.361111	-27.450931	1450.257201	17.885934	401.102031	1178.467015	-31.958008	-88.797963	1162.089914	7.257690	434.192901	929.888439	10.397377	-94.885596	945.027357	117.431637
3430	34.29000	170.189257	946.525711	-30.265189	152.329876	1512.019834	49.034688	161.059454	1596.373095	197.756179	247.709364	951.945436	-33.058060	92.668939	941.106025	-27.472364	245.765186	516.412566	19.703212	34.285328	535.243510	122.074249	237.217304	93.812706	-32.131760	-7.168675	227.594021	-92.391296	234.512540	41.579148	-65.632215	-7.019230	209.150034	-139.095297	228.409145	43.501394	163.003449	-12.387101	94.239102	1.511560	333.439593	1463.674503	7.441617	-26.754112	1450.196095	15.081183	402.638597	1178.163150	-28.490627	-87.616699	1162.368492	-0.086698	433.805055	931.681854	20.798233	-96.623387	942.532553	102.951421
3431	34.30000	171.168423	946.631343	-32.273305	152.650795	1511.819911	47.774238	160.894985	1596.131567	196.526981	248.715889	952.148889	-35.327470	93.620755	941.113839	-29.219192	247.305886	515.947601	8.744372	35.875504	537.168863	127.905483	238.001183	94.781579	-51.550765	-5.925945	226.592658	-76.143737	235.036352	43.187049	-85.934761	-5.992542	207.065577	-121.853382	230.064432	41.140948	142.408857	-10.449930	97.025984	20.460038	334.048061	1463.449395	7.522123	-26.057292	1450.134989	12.276433	404.175163	1177.859285	-25.023247	-86.435434	1162.647070	-7.431085	433.417209	933.475269	31.199089	-98.361178	940.037750	88.471206
